<svg width="28" height="21" viewBox="0 0 28 21" fill="none" xmlns="http://www.w3.org/2000/svg">
<path d="M24.3105 19.0526H4.62896C3.20791 19.0526 2 17.8447 2 16.4237V4.62895C2 3.2079 3.20791 2 4.62896 2H24.3105C25.7316 2 26.9395 3.2079 26.9395 4.62895V16.4237C26.9395 17.8447 25.8026 19.0526 24.3105 19.0526Z" stroke="#FC591E" stroke-width="2.1" stroke-miterlimit="10" stroke-linejoin="round"/>
<path d="M16.4948 6.61841H23.6711" stroke="#FC591E" stroke-miterlimit="10" stroke-linecap="round"/>
<path d="M16.4948 9.24756H23.6711" stroke="#FC591E" stroke-miterlimit="10" stroke-linecap="round"/>
<path d="M16.4948 11.8054H23.6711" stroke="#FC591E" stroke-miterlimit="10" stroke-linecap="round"/>
<path d="M16.4948 14.4343H23.6711" stroke="#FC591E" stroke-miterlimit="10" stroke-linecap="round"/>
<path d="M11.3133 11.2271C11.7954 11.2271 12.2374 11.3442 12.6592 11.5786C13.0611 11.813 13.4026 12.145 13.6436 12.5357C13.8847 12.9458 14.0052 13.3755 14.0052 13.8442V14.3521C14.0052 14.6255 13.9048 14.8403 13.724 15.0161C13.5231 15.2114 13.3021 15.2896 13.041 15.2896H5.96953C5.68828 15.2896 5.4673 15.2114 5.2865 15.0161C5.08561 14.8403 5.00525 14.6255 5.00525 14.3521V13.8442C5.00525 13.3755 5.12579 12.9458 5.36686 12.5357C5.60793 12.145 5.92936 11.813 6.35123 11.5786C6.75301 11.3442 7.21507 11.2271 7.69721 11.2271C7.85793 11.2271 8.099 11.2857 8.38025 11.3638C8.56105 11.4224 8.72177 11.4614 8.8423 11.4809C9.0432 11.52 9.26417 11.5396 9.50525 11.5396C9.74632 11.5396 9.9673 11.52 10.1682 11.4809C10.2887 11.4614 10.4294 11.4224 10.6302 11.3638C10.9115 11.2857 11.1325 11.2271 11.3133 11.2271ZM13.041 14.3521V13.8442C13.041 13.395 12.8602 13.0044 12.5186 12.6724C12.1771 12.3403 11.7754 12.1646 11.3133 12.1646C11.2329 12.1646 11.0923 12.2036 10.9115 12.2427C10.4294 12.3989 9.94721 12.4771 9.50525 12.4771C9.06328 12.4771 8.58114 12.3989 8.099 12.2427C7.89811 12.2036 7.75748 12.1646 7.69721 12.1646C7.21507 12.1646 6.81328 12.3403 6.47177 12.6724C6.13025 13.0044 5.96953 13.395 5.96953 13.8442V14.3521H13.041ZM9.50525 10.9146C8.98293 10.9146 8.50079 10.7974 8.05882 10.5435C7.61685 10.2896 7.25525 9.93799 6.99409 9.5083C6.73293 9.07861 6.61239 8.60986 6.61239 8.10205C6.61239 7.59424 6.73293 7.12549 6.99409 6.6958C7.25525 6.26611 7.61685 5.93408 8.05882 5.68018C8.50079 5.42627 8.98293 5.28955 9.50525 5.28955C10.0276 5.28955 10.5097 5.42627 10.9516 5.68018C11.3936 5.93408 11.7351 6.26611 11.9963 6.6958C12.2575 7.12549 12.3981 7.59424 12.3981 8.10205C12.3981 8.60986 12.2575 9.07861 11.9963 9.5083C11.7351 9.93799 11.3936 10.2896 10.9516 10.5435C10.5097 10.7974 10.0276 10.9146 9.50525 10.9146ZM9.50525 6.22705C8.96284 6.22705 8.50079 6.42236 8.13918 6.77393C7.75748 7.14502 7.57668 7.59424 7.57668 8.10205C7.57668 8.6294 7.75748 9.07861 8.13918 9.43017C8.50079 9.80127 8.96284 9.97705 9.50525 9.97705C10.0276 9.97705 10.4896 9.80127 10.8713 9.43017C11.2329 9.07861 11.4338 8.6294 11.4338 8.10205C11.4338 7.59424 11.2329 7.14502 10.8713 6.77393C10.4896 6.42236 10.0276 6.22705 9.50525 6.22705Z" fill="#FC591E" stroke="#FC591E" stroke-width="0.2"/>
</svg>
