<?xml version="1.0" encoding="UTF-8"?> <svg xmlns="http://www.w3.org/2000/svg" width="123" height="115" viewBox="0 0 123 115" fill="none"><g clip-path="url(#clip0_612_15)"><path fill-rule="evenodd" clip-rule="evenodd" d="M9.32 0H113.56C118.69 0 122.88 4.2 122.88 9.32V82.94C122.88 88.05 118.67 92.26 113.56 92.26H83.84L67.67 111.32C64.09 115.55 58.22 115.36 54.86 111.32L39.04 92.26H9.32C4.21 92.26 0 88.07 0 82.94V9.32C0 4.19 4.19 0 9.32 0Z" fill="#79009C"></path><path fill-rule="evenodd" clip-rule="evenodd" d="M61.2001 30.42C64.7301 26.74 67.2001 24.25 72.6301 23.63C82.8301 22.46 92.9001 32.9 87.7501 43.19C85.8501 46.98 79.2601 53.35 73.9901 58.34C71.9801 60.24 70.1601 61.95 68.8701 63.23L61.2101 70.83L54.8801 64.74C52.9701 62.91 50.7201 60.95 48.4201 58.87C41.5001 52.64 34.0501 45.3 33.7401 36.73C33.4501 28.72 40.4601 23.58 47.7401 23.67C54.2001 23.76 56.9201 26.25 61.2001 30.42Z" fill="white"></path></g><defs><clipPath id="clip0_612_15"><rect width="122.88" height="114.42" fill="white"></rect></clipPath></defs></svg> 