<svg xmlns="http://www.w3.org/2000/svg" viewBox="0 0 128 129"><g fill="none"><circle cx="64" cy="64" r="64" fill="#8A3AB9"/><path fill="#233E49" d="M121.9,107 L5.8,107 C5.2,107 4.8,106.6 4.8,106 C4.8,105.4 5.2,105 5.8,105 L121.9,105 C122.5,105 122.9,105.5 122.9,106 C122.9,106.6 122.4,107 121.9,107 Z"/><path fill="#EAEAEA" d="M103.2,98.2 C103.2,102.6 99.6,106.2 95.2,106.2 L32.7,106.2 C28.3,106.2 24.7,102.6 24.7,98.2 L24.7,35.7 C24.7,31.3 28.3,27.7 32.7,27.7 L95.2,27.7 C99.6,27.7 103.2,31.3 103.2,35.7 L103.2,98.2 Z"/><path fill="#415E6D" d="M24.7,84.3 L24.7,98.4 C24.7,102.8 28.3,106.4 32.7,106.4 L95.2,106.4 C99.6,106.4 103.2,102.8 103.2,98.4 L103.2,84.3 L24.7,84.3 Z"/><path fill="#D4D6D6" d="M96,43.3 C96,44.4 95.1,45.3 94,45.3 L86.5,45.3 C85.4,45.3 84.5,44.4 84.5,43.3 L84.5,40.3 C84.5,39.2 85.4,38.3 86.5,38.3 L94,38.3 C95.1,38.3 96,39.2 96,40.3 L96,43.3 Z"/><polygon fill="#FC8BA4" points="58 70.3 64.2 70.3 64.2 84.9 58 84.9"/><path fill="#324D5B" d="M95.2,98.3 L32.7,98.3 C28.3,98.3 24.7,94.5 24.7,90.1 L24.7,98.1 C24.7,102.5 28.3,106.1 32.7,106.1 L95.2,106.1 C99.6,106.1 103.2,102.5 103.2,98.1 L103.2,90.1 C103.2,94.6 99.6,98.3 95.2,98.3 Z"/><polygon fill="#FF4848" points="53 70.3 58 70.3 58 84.9 53 84.9"/><polygon fill="#75B600" points="64 70.3 70.1 70.3 70.1 84.9 64 84.9"/><polygon fill="#3AD0F9" points="70 70.3 75.9 70.3 75.9 84.9 70 84.9"/><circle cx="63.9" cy="64" r="16.2" fill="#D4D6D6"/><circle cx="63.9" cy="60.2" r="16.2" fill="#415E6D"/><circle cx="63.9" cy="60.2" r="10.9" fill="#415E6D"/><path fill="#233E49" d="M94,46 L86,46 C84.3,46 83,44.7 83,43 L83,40 C83,38.3 84.3,37 86,37 L94,37 C95.7,37 97,38.3 97,40 L97,43 C97,44.7 95.7,46 94,46 Z M86,39 C85.4,39 85,39.4 85,40 L85,43 C85,43.6 85.4,44 86,44 L94,44 C94.6,44 95,43.6 95,43 L95,40 C95,39.4 94.6,39 94,39 L86,39 Z"/><circle cx="38.8" cy="43.9" r="4.8" fill="#415E6D"/><path fill="#233E49" d="M95,107 L33,107 C28,107 24,103 24,98 L24,35 C24,30 28,26 33,26 L95,26 C100,26 104,30 104,35 L104,98 C104,103 100,107 95,107 Z M33,28 C29.1,28 26,31.1 26,35 L26,98 C26,101.9 29.1,105 33,105 L95,105 C98.9,105 102,101.9 102,98 L102,35 C102,31.1 98.9,28 95,28 L33,28 Z"/><path fill="#FF4848" d="M42,58 C42,60.1 40.1,62 38,62 C35.9,62 34,60.1 34,58 C34,55.9 35.9,54 38,54 C40.1,54 42,55.9 42,58 Z"/><path fill="#233E49" d="M103,85 L25.5,85 C24.9,85 24.5,84.6 24.5,84 C24.5,83.4 24.9,83 25.5,83 L103,83 C103.6,83 104,83.4 104,84 C104,84.6 103.6,85 103,85 Z"/><path fill="#EAEAEA" d="M85.9,121.8 C85.9,125.1 83.2,126.8 79.9,126.8 L47.9,126.8 C44.6,126.8 41.9,125.1 41.9,121.8 L41.9,94.4 L85.9,94.4 L85.9,121.8 L85.9,121.8 Z"/><polygon fill="#D4D6D6" points="42.6 94.4 85.5 94.4 85.5 98.3 42.6 98.3"/><path fill="#415E6D" d="M80.7,94.7 L80.7,117.7 C80.7,118.8 79.8,119.7 78.7,119.7 L49.3,119.7 C48.2,119.7 47.3,118.8 47.3,117.7 L47.3,94.7"/><path fill="#233E49" d="M79.9,128.3 L47.9,128.3 C43.9,128.3 40.9,125.5 40.9,121.8 L40.9,94.4 C40.9,93.8 41.3,93.4 41.9,93.4 L85.9,93.4 C86.5,93.4 86.9,93.8 86.9,94.4 L86.9,121.8 C86.9,125.5 83.9,128.3 79.9,128.3 Z M42.9,95.4 L42.9,121.8 C42.9,124.4 45,126.3 47.9,126.3 L79.9,126.3 C82.8,126.3 84.9,124.4 84.9,121.8 L84.9,95.4 L42.9,95.4 Z"/><polygon fill="#324D5B" points="46.9 94.4 80.9 94.4 80.9 98 46.9 98"/><path fill="#233E49" d="M90.2,95 L37.8,95 C37.2,95 36.8,94.6 36.8,94 C36.8,93.4 37.2,93 37.8,93 L90.1,93 C90.7,93 91.1,93.5 91.1,94 C91.2,94.6 90.7,95 90.2,95 L90.2,95 Z M114.7,16.2 C114.4,16.2 114.2,16.1 114,15.9 C113.6,15.5 113.6,14.9 114,14.5 L120.4,8.1 C120.8,7.7 121.4,7.7 121.8,8.1 C122.2,8.5 122.2,9.1 121.8,9.5 L115.4,15.9 C115.2,16.1 114.9,16.2 114.7,16.2 Z M109.4,13.1 L109.2,13.1 C108.7,13 108.3,12.5 108.4,11.9 L109.7,5.5 C109.8,5 110.3,4.6 110.9,4.7 C111.4,4.8 111.8,5.3 111.7,5.9 L110.4,12.3 C110.3,12.8 109.9,13.1 109.4,13.1 L109.4,13.1 Z M117.7,21.4 C117.2,21.4 116.8,21.1 116.7,20.6 C116.6,20.1 116.9,19.5 117.5,19.4 L123.9,18.1 C124.4,18 125,18.3 125.1,18.9 C125.2,19.4 124.9,20 124.3,20.1 L117.9,21.4 L117.7,21.4 Z M63.9,77 C54.4,77 47,69.5 47,59.9 C47,50.4 54.4,43 63.9,43 C73.5,43 81,50.4 81,59.9 C81,69.5 73.5,77 63.9,77 Z M63.9,45 C55.6,45 49,51.5 49,59.9 C49,68.4 55.6,75 63.9,75 C72.4,75 79,68.4 79,59.9 C79,51.5 72.4,45 63.9,45 Z"/><path fill="#233E49" d="M64,72 C57.4,72 52,66.6 52,60 C52,53.4 57.4,48 64,48 C70.6,48 76,53.4 76,60 C76,66.6 70.6,72 64,72 Z M64,50 C58.5,50 54,54.5 54,60 C54,65.5 58.5,70 64,70 C69.5,70 74,65.5 74,60 C74,54.5 69.5,50 64,50 Z"/><path fill="#FFF" d="M64,68 C59.6,68 56,64.4 56,60 C56,59 56.2,57.9 56.6,57 C56.8,56.5 57.4,56.3 57.9,56.5 C58.4,56.7 58.6,57.3 58.4,57.8 C58.1,58.4 58,59.2 58,60 C58,63.3 60.7,66 64,66 C67.3,66 70,63.3 70,60 C70,56.7 67.3,54 64,54 C63.2,54 62.5,54.1 61.8,54.4 C61.3,54.6 60.7,54.3 60.5,53.8 C60.3,53.3 60.6,52.7 61.1,52.5 C62,52.2 63,52 64,52 C68.4,52 72,55.6 72,60 C72,64.4 68.4,68 64,68 Z" opacity=".5"/><path fill="#FFF" d="M67.1,61 C66.6,61 66.2,60.6 66.2,60 C66.2,58.8 65.2,57.8 64.1,57.8 C62.9,57.8 62,58.8 62,60 C62,60.5 61.6,61 61.1,61 C60.6,61 60.2,60.6 60.2,60 C60.2,57.7 62,55.9 64.2,55.9 C66.4,55.9 68.2,57.7 68.2,60 C68,60.6 67.6,61 67.1,61 Z M51.4,56 C51.3,56 51.1,56 51,55.9 C50.5,55.7 50.3,55.1 50.5,54.6 C52.8,49.4 58,46 63.9,46 C69.3,46 74.2,48.8 76.7,53.4 C77,53.9 76.8,54.5 76.3,54.7 C75.8,55 75.2,54.8 74.9,54.3 C72.7,50.3 68.5,47.9 63.8,47.9 C58.7,47.9 54.2,50.8 52.2,55.3 C52.2,55.7 51.8,56 51.4,56 L51.4,56 Z" opacity=".5"/><path fill="#233E49" d="M39,50 C35.8,50 33,47.2 33,44 C33,40.8 35.8,38 39,38 C42.2,38 45,40.8 45,44 C45,47.2 42.2,50 39,50 Z M39,40 C36.9,40 35,41.9 35,44 C35,46.1 36.9,48 39,48 C41.1,48 43,46.1 43,44 C43,41.9 41.1,40 39,40 Z M79,120.3 L49,120.3 C47.3,120.3 46,119 46,117.3 L46,94.7 C46,94.1 46.4,93.7 47,93.7 C47.6,93.7 48,94.1 48,94.7 L48,117.4 C48,118 48.4,118.4 49,118.4 L79,118.4 C79.6,118.4 80,118 80,117.4 L80,94.7 C80,94.1 80.4,93.7 81,93.7 C81.6,93.7 82,94.1 82,94.7 L82,117.4 C82,119 80.7,120.3 79,120.3 L79,120.3 Z"/><path fill="#FFF" d="M99,60 C98.4,60 98,59.6 98,59 L98,38.3 C98,35.5 95.8,33.3 93,33.3 L62.5,33.3 C61.9,33.3 61.5,32.9 61.5,32.3 C61.5,31.7 61.9,31.3 62.5,31.3 L93,31.3 C96.9,31.3 100,34.4 100,38.3 L100,59 C100,59.6 99.6,60 99,60 Z M53.5,33.3 L37.7,33.3 C37.1,33.3 36.7,32.9 36.7,32.3 C36.7,31.7 37.1,31.3 37.7,31.3 L53.5,31.3 C54.1,31.3 54.5,31.7 54.5,32.3 C54.5,32.9 54.1,33.3 53.5,33.3 Z"/><path fill="#FFF" d="M76,116 L65.1,116 C64.5,116 64.1,115.5 64.1,115 C64.1,114.5 64.5,114 65.1,114 L75,114 L75,102 C75,101.4 75.4,101 76,101 C76.6,101 77,101.5 77,102 L77,115 C77,115.5 76.6,116 76,116 Z M60.1,116 L53,116 C52.4,116 52,115.6 52,115 C52,114.4 52.4,114 53,114 L60.1,114 C60.7,114 61.1,114.4 61.1,115 C61.1,115.6 60.7,116 60.1,116 Z" opacity=".5"/><path fill="#FFF" d="M112.9,78 C110.7,78 108.8,76.2 108.8,74 C108.8,71.8 110.6,70 112.9,70 C115.1,70 117,71.8 117,74 C117,76.2 115.2,78 112.9,78 Z M112.9,71.8 C111.7,71.8 110.7,72.8 110.7,73.9 C110.7,75.1 111.7,76 112.9,76 C114.1,76 115.1,75 115.1,73.9 C115.1,72.8 114.1,71.8 112.9,71.8 Z M47,22.9 C44.8,22.9 43,21.1 43,18.9 C43,16.7 44.8,14.9 47,14.9 C49.2,14.9 51,16.7 51,18.9 C51,21.1 49.2,22.9 47,22.9 Z M47,16.8 C45.8,16.8 44.9,17.8 44.9,18.9 C44.9,20.1 45.9,21 47,21 C48.2,21 49.1,20 49.1,18.9 C49.1,17.7 48.2,16.8 47,16.8 Z M19.3,74 C19.3,73.6 18.9,73.2 18.3,73.1 L16.4,72.8 C15.9,72.7 15.3,72.2 15.3,71.7 L15,69.9 C14.9,69.4 14.5,68.9 14.1,68.9 C13.7,68.9 13.3,69.3 13.2,69.9 L13,71.8 C12.9,72.3 12.4,72.9 11.9,72.9 L10,73.2 C9.5,73.3 9,73.7 9,74.1 C9,74.5 9.4,74.9 10,75 L11.9,75.3 C12.4,75.4 13,75.9 13,76.4 L13.3,78.3 C13.4,78.8 13.8,79.3 14.2,79.3 C14.6,79.3 15,78.9 15.1,78.3 L15.4,76.2 C15.5,75.7 16,75.2 16.5,75.1 L18.3,75 C18.8,74.8 19.3,74.4 19.3,74 L19.3,74 Z M83,15.5 C83,15.1 82.6,14.7 82,14.6 L80.1,14.3 C79.6,14.2 79,13.7 79,13.2 L78.7,11.3 C78.6,10.8 78.2,10.3 77.8,10.3 C77.4,10.3 77,10.7 76.9,11.3 L76.6,13.2 C76.5,13.7 76,14.3 75.5,14.3 L73.6,14.6 C73.1,14.7 72.6,15.1 72.6,15.5 C72.6,15.9 73,16.3 73.6,16.4 L75.5,16.7 C76,16.8 76.6,17.3 76.6,17.8 L76.9,19.7 C77,20.2 77.4,20.7 77.8,20.7 C78.2,20.7 78.6,20.3 78.6,19.7 L78.9,17.6 C79,17.1 79.5,16.6 80,16.5 L81.8,16.4 C82.6,16.2 83,15.9 83,15.5 L83,15.5 Z"/></g></svg>