<svg width="16" height="19" viewBox="0 0 16 19" fill="none" xmlns="http://www.w3.org/2000/svg">
<path d="M11.1641 10.9375C12.0078 10.9375 12.7812 11.1484 13.5195 11.5703C14.2227 11.9922 14.8203 12.5898 15.2422 13.293C15.6641 14.0312 15.875 14.8047 15.875 15.6484V16.5625C15.875 17.0547 15.6992 17.4414 15.3828 17.7578C15.0312 18.1094 14.6445 18.25 14.1875 18.25H1.8125C1.32031 18.25 0.933594 18.1094 0.617188 17.7578C0.265625 17.4414 0.125 17.0547 0.125 16.5625V15.6484C0.125 14.8047 0.335938 14.0312 0.757812 13.293C1.17969 12.5898 1.74219 11.9922 2.48047 11.5703C3.18359 11.1484 3.99219 10.9375 4.83594 10.9375C5.11719 10.9375 5.53906 11.043 6.03125 11.1836C6.34766 11.2891 6.62891 11.3594 6.83984 11.3945C7.19141 11.4648 7.57812 11.5 8 11.5C8.42188 11.5 8.80859 11.4648 9.16016 11.3945C9.37109 11.3594 9.61719 11.2891 9.96875 11.1836C10.4609 11.043 10.8477 10.9375 11.1641 10.9375ZM14.1875 16.5625V15.6484C14.1875 14.8398 13.8711 14.1367 13.2734 13.5391C12.6758 12.9414 11.9727 12.625 11.1641 12.625C11.0234 12.625 10.7773 12.6953 10.4609 12.7656C9.61719 13.0469 8.77344 13.1875 8 13.1875C7.22656 13.1875 6.38281 13.0469 5.53906 12.7656C5.1875 12.6953 4.94141 12.625 4.83594 12.625C3.99219 12.625 3.28906 12.9414 2.69141 13.5391C2.09375 14.1367 1.8125 14.8398 1.8125 15.6484V16.5625H14.1875ZM8 10.375C7.08594 10.375 6.24219 10.1641 5.46875 9.70703C4.69531 9.25 4.0625 8.61719 3.60547 7.84375C3.14844 7.07031 2.9375 6.22656 2.9375 5.3125C2.9375 4.39844 3.14844 3.55469 3.60547 2.78125C4.0625 2.00781 4.69531 1.41016 5.46875 0.953125C6.24219 0.496094 7.08594 0.25 8 0.25C8.91406 0.25 9.75781 0.496094 10.5312 0.953125C11.3047 1.41016 11.9023 2.00781 12.3594 2.78125C12.8164 3.55469 13.0625 4.39844 13.0625 5.3125C13.0625 6.22656 12.8164 7.07031 12.3594 7.84375C11.9023 8.61719 11.3047 9.25 10.5312 9.70703C9.75781 10.1641 8.91406 10.375 8 10.375ZM8 1.9375C7.05078 1.9375 6.24219 2.28906 5.60938 2.92188C4.94141 3.58984 4.625 4.39844 4.625 5.3125C4.625 6.26172 4.94141 7.07031 5.60938 7.70312C6.24219 8.37109 7.05078 8.6875 8 8.6875C8.91406 8.6875 9.72266 8.37109 10.3906 7.70312C11.0234 7.07031 11.375 6.26172 11.375 5.3125C11.375 4.39844 11.0234 3.58984 10.3906 2.92188C9.72266 2.28906 8.91406 1.9375 8 1.9375Z" fill="#FC591E"/>
<path d="M13.5195 11.5703L13.5453 11.5274L13.5443 11.5269L13.5195 11.5703ZM15.2422 13.293L15.2856 13.2682L15.2851 13.2672L15.2422 13.293ZM0.617188 17.7578L0.654559 17.7242L0.650636 17.7206L0.617188 17.7578ZM0.757812 13.293L0.714928 13.2672L0.7144 13.2682L0.757812 13.293ZM2.48047 11.5703L2.50528 11.6137L2.50619 11.6132L2.48047 11.5703ZM6.03125 11.1836L6.04708 11.1361L6.04499 11.1355L6.03125 11.1836ZM6.83984 11.3945L6.84965 11.3455L6.84806 11.3452L6.83984 11.3945ZM9.16016 11.3945L9.15193 11.3452L9.15035 11.3455L9.16016 11.3945ZM9.96875 11.1836L9.95501 11.1355L9.95438 11.1357L9.96875 11.1836ZM14.1875 16.5625V16.6125H14.2375V16.5625H14.1875ZM10.4609 12.7656L10.45 12.7166L10.4451 12.7182L10.4609 12.7656ZM5.53906 12.7656L5.555 12.7178L5.54887 12.7166L5.53906 12.7656ZM1.8125 16.5625H1.7625V16.6125H1.8125V16.5625ZM5.60938 7.70312L5.64573 7.66869L5.64376 7.66683L5.60938 7.70312ZM10.3906 2.92188L10.427 2.88744L10.425 2.88558L10.3906 2.92188ZM11.1641 10.9875C11.9988 10.9875 12.7638 11.196 13.4947 11.6137L13.5443 11.5269C12.7987 11.1008 12.0168 10.8875 11.1641 10.8875V10.9875ZM13.4938 11.6132C14.1899 12.0308 14.7817 12.6226 15.1993 13.3187L15.2851 13.2672C14.859 12.5571 14.2554 11.9535 13.5453 11.5274L13.4938 11.6132ZM15.1988 13.3178C15.6165 14.0487 15.825 14.8137 15.825 15.6484H15.925C15.925 14.7957 15.7117 14.0138 15.2856 13.2682L15.1988 13.3178ZM15.825 15.6484V16.5625H15.925V15.6484H15.825ZM15.825 16.5625C15.825 17.0409 15.6548 17.4151 15.3475 17.7225L15.4182 17.7932C15.7436 17.4677 15.925 17.0684 15.925 16.5625H15.825ZM15.3475 17.7225C15.0059 18.064 14.6322 18.2 14.1875 18.2V18.3C14.6569 18.3 15.0566 18.1547 15.4182 17.7932L15.3475 17.7225ZM14.1875 18.2H1.8125V18.3H14.1875V18.2ZM1.8125 18.2C1.33156 18.2 0.959479 18.0634 0.654352 17.7244L0.580023 17.7913C0.907708 18.1554 1.30907 18.3 1.8125 18.3V18.2ZM0.650636 17.7206C0.311606 17.4155 0.175 17.0434 0.175 16.5625H0.075C0.075 17.0659 0.219644 17.4673 0.583739 17.795L0.650636 17.7206ZM0.175 16.5625V15.6484H0.075V16.5625H0.175ZM0.175 15.6484C0.175 14.8137 0.383535 14.0487 0.801225 13.3178L0.7144 13.2682C0.28834 14.0138 0.075 14.7957 0.075 15.6484H0.175ZM0.800687 13.3187C1.21882 12.6218 1.77549 12.0307 2.50528 11.6137L2.45566 11.5269C1.70889 11.9536 1.14055 12.5579 0.714938 13.2672L0.800687 13.3187ZM2.50619 11.6132C3.20099 11.1963 4.00057 10.9875 4.83594 10.9875V10.8875C3.9838 10.8875 3.1662 11.1006 2.45474 11.5274L2.50619 11.6132ZM4.83594 10.9875C5.10885 10.9875 5.52365 11.0906 6.01751 11.2317L6.04499 11.1355C5.55447 10.9954 5.12552 10.8875 4.83594 10.8875V10.9875ZM6.01544 11.231C6.33371 11.3371 6.61755 11.4082 6.83162 11.4439L6.84806 11.3452C6.64027 11.3106 6.3616 11.241 6.04706 11.1362L6.01544 11.231ZM6.83004 11.4436C7.18534 11.5146 7.57539 11.55 8 11.55V11.45C7.58086 11.45 7.19748 11.4151 6.84965 11.3455L6.83004 11.4436ZM8 11.55C8.42461 11.55 8.81466 11.5146 9.16996 11.4436L9.15035 11.3455C8.80252 11.4151 8.41914 11.45 8 11.45V11.55ZM9.16838 11.4439C9.38298 11.4081 9.63213 11.3368 9.98312 11.2315L9.95438 11.1357C9.60224 11.2413 9.35921 11.3107 9.15194 11.3452L9.16838 11.4439ZM9.98249 11.2317C10.4768 11.0904 10.8561 10.9875 11.1641 10.9875V10.8875C10.8392 10.8875 10.4451 10.9955 9.95501 11.1355L9.98249 11.2317ZM14.2375 16.5625V15.6484H14.1375V16.5625H14.2375ZM14.2375 15.6484C14.2375 14.8252 13.9148 14.1097 13.3088 13.5037L13.2381 13.5744C13.8274 14.1637 14.1375 14.8545 14.1375 15.6484H14.2375ZM13.3088 13.5037C12.7028 12.8977 11.9873 12.575 11.1641 12.575V12.675C11.958 12.675 12.6488 12.9851 13.2381 13.5744L13.3088 13.5037ZM11.1641 12.575C11.0875 12.575 10.9857 12.5939 10.8676 12.6201C10.8078 12.6334 10.7426 12.6489 10.673 12.6653C10.6033 12.6818 10.5288 12.6993 10.4501 12.7168L10.4718 12.8144C10.5512 12.7968 10.6262 12.7791 10.696 12.7627C10.7659 12.7461 10.8303 12.7308 10.8893 12.7178C11.0084 12.6913 11.1 12.675 11.1641 12.675V12.575ZM10.4451 12.7182C9.60597 12.9979 8.76755 13.1375 8 13.1375V13.2375C8.77932 13.2375 9.62841 13.0958 10.4767 12.8131L10.4451 12.7182ZM8 13.1375C7.23245 13.1375 6.39403 12.9979 5.55487 12.7182L5.52325 12.8131C6.37159 13.0958 7.22068 13.2375 8 13.2375V13.1375ZM5.54887 12.7166C5.37378 12.6816 5.22541 12.6467 5.10606 12.6201C4.98947 12.5942 4.89541 12.575 4.83594 12.575V12.675C4.88193 12.675 4.96365 12.6909 5.08437 12.7178C5.20233 12.744 5.35278 12.7794 5.52926 12.8147L5.54887 12.7166ZM4.83594 12.575C3.97785 12.575 3.2623 12.8975 2.65605 13.5037L2.72676 13.5744C3.31583 12.9854 4.00652 12.675 4.83594 12.675V12.575ZM2.65605 13.5037C2.04894 14.1108 1.7625 14.8267 1.7625 15.6484H1.8625C1.8625 14.853 2.13856 14.1626 2.72676 13.5744L2.65605 13.5037ZM1.7625 15.6484V16.5625H1.8625V15.6484H1.7625ZM1.8125 16.6125H14.1875V16.5125H1.8125V16.6125ZM8 10.325C7.09403 10.325 6.25922 10.116 5.49419 9.66399L5.44331 9.75008C6.22516 10.2121 7.07784 10.425 8 10.425V10.325ZM5.49419 9.66399C4.72801 9.21124 4.10126 8.58449 3.64852 7.81831L3.56242 7.86919C4.02374 8.64989 4.66261 9.28876 5.44331 9.75008L5.49419 9.66399ZM3.64852 7.81831C3.19645 7.05328 2.9875 6.21847 2.9875 5.3125H2.8875C2.8875 6.23466 3.10042 7.08734 3.56242 7.86919L3.64852 7.81831ZM2.9875 5.3125C2.9875 4.40653 3.19645 3.57172 3.64852 2.80669L3.56242 2.75581C3.10042 3.53766 2.8875 4.39034 2.8875 5.3125H2.9875ZM3.64852 2.80669C4.10077 2.04133 4.72714 1.44943 5.49419 0.996171L5.44331 0.910079C4.66348 1.37089 4.02423 1.97429 3.56242 2.75581L3.64852 2.80669ZM5.49419 0.996171C6.26036 0.543432 7.09538 0.3 8 0.3V0.2C7.07649 0.2 6.22401 0.448756 5.44331 0.910079L5.49419 0.996171ZM8 0.3C8.90462 0.3 9.73964 0.543432 10.5058 0.996171L10.5567 0.910079C9.77599 0.448756 8.92351 0.2 8 0.2V0.3ZM10.5058 0.996171C11.272 1.44891 11.8636 2.04051 12.3163 2.80669L12.4024 2.75581C11.9411 1.97511 11.3374 1.3714 10.5567 0.910079L10.5058 0.996171ZM12.3163 2.80669C12.7691 3.57286 13.0125 4.40788 13.0125 5.3125H13.1125C13.1125 4.38899 12.8637 3.53651 12.4024 2.75581L12.3163 2.80669ZM13.0125 5.3125C13.0125 6.21712 12.7691 7.05214 12.3163 7.81831L12.4024 7.86919C12.8637 7.08849 13.1125 6.23601 13.1125 5.3125H13.0125ZM12.3163 7.81831C11.8631 8.58536 11.2712 9.21173 10.5058 9.66399L10.5567 9.75008C11.3382 9.28827 11.9416 8.64902 12.4024 7.86919L12.3163 7.81831ZM10.5058 9.66399C9.74078 10.116 8.90597 10.325 8 10.325V10.425C8.92216 10.425 9.77484 10.2121 10.5567 9.75008L10.5058 9.66399ZM8 1.8875C7.03731 1.8875 6.21606 2.24448 5.57402 2.88652L5.64473 2.95723C6.26831 2.33365 7.06425 1.9875 8 1.9875V1.8875ZM5.57402 2.88652C4.89634 3.5642 4.575 4.38565 4.575 5.3125H4.675C4.675 4.41122 4.98647 3.61549 5.64473 2.95723L5.57402 2.88652ZM4.575 5.3125C4.575 6.27396 4.89602 7.09619 5.57499 7.73942L5.64376 7.66683C4.98679 7.04443 4.675 6.24948 4.675 5.3125H4.575ZM5.57308 7.73751C6.21631 8.41648 7.03854 8.7375 8 8.7375V8.6375C7.06302 8.6375 6.26807 8.32571 5.64567 7.66874L5.57308 7.73751ZM8 8.7375C8.92685 8.7375 9.7483 8.41616 10.426 7.73848L10.3553 7.66777C9.69701 8.32603 8.90128 8.6375 8 8.6375V8.7375ZM10.426 7.73848C11.068 7.09644 11.425 6.27519 11.425 5.3125H11.325C11.325 6.24825 10.9789 7.04419 10.3553 7.66777L10.426 7.73848ZM11.425 5.3125C11.425 4.38449 11.0677 3.56387 10.4269 2.88749L10.3543 2.95626C10.9792 3.61581 11.325 4.41238 11.325 5.3125H11.425ZM10.425 2.88558C9.74863 2.24479 8.92801 1.8875 8 1.8875V1.9875C8.90012 1.9875 9.69669 2.33333 10.3562 2.95817L10.425 2.88558Z" fill="white"/>
</svg>
