<svg width="32" height="32" xmlns="http://www.w3.org/2000/svg" fill="#F5591E">

 <g>
  <title>Layer 1</title>
  <path stroke="null" id="svg_1" d="m30.51582,21.97147l-2.82504,-2.82504a4.52135,4.52135 0 0 0 -6.34093,-0.02697a2.7634,2.7634 0 0 1 -3.50434,0.34286a19.29503,19.29503 0 0 1 -5.3175,-5.30723a2.80064,2.80064 0 0 1 0.36469,-3.51718a4.52135,4.52135 0 0 0 -0.03981,-6.32167l-2.82504,-2.82504a4.51236,4.51236 0 0 0 -6.37047,0l-0.81284,0.81413c-4.23756,4.23756 -3.92039,13.14672 4.89631,21.95828c5.31621,5.3175 10.6671,7.54414 15.00611,7.54414a9.63082,9.63082 0 0 0 6.95731,-2.64655l0.81413,-0.81413a4.51108,4.51108 0 0 0 -0.00257,-6.3756zm-1.81573,4.55987l-0.81413,0.81413c-3.33869,3.33869 -10.70819,2.72873 -18.33195,-4.89631s-8.235,-14.99969 -4.89631,-18.33837l0.80771,-0.81284a1.94029,1.94029 0 0 1 2.73901,0l2.82504,2.82504a1.94029,1.94029 0 0 1 0.02697,2.70947a5.36886,5.36886 0 0 0 -0.68186,6.72745a21.84271,21.84271 0 0 0 6.05201,6.04302a5.36629,5.36629 0 0 0 6.71718,-0.66388a1.94157,1.94157 0 0 1 2.71974,0.01669l2.82504,2.82504a1.93901,1.93901 0 0 1 0.01156,2.75056z"/>
 </g>
</svg>